<svg id="icone-export" xmlns="http://www.w3.org/2000/svg" viewBox="0 0 120 120" width="1200" height="1200" class="w-full h-full"><circle cx="60" cy="60" r="55" fill="none" stroke="#BE8B5E" stroke-width="2.5"/><g fill="none" stroke="#BE8B5E" stroke-width="2.5" stroke-linecap="round" stroke-linejoin="round"><path d="M 42,20 C 50,45 46,65 32,106"/><path d="M 78,20 C 70,45 74,65 88,106"/><path d="M 37,70 Q 60,78 83,70"/><path d="M 34,80 Q 50,88 56,100"/><path d="M 86,80 Q 70,88 64,100"/><path d="M 56,100 L 64,100"/><path d="M 56,100 L 56,106"/><path d="M 64,100 L 64,106"/><path d="M 20,55 L 34,55"/><path d="M 26,49 L 34,55 L 26,61"/><path d="M 100,55 L 86,55"/><path d="M 94,49 L 86,55 L 94,61"/></g></svg>