<svg id="icone-export" xmlns="http://www.w3.org/2000/svg" viewBox="0 0 120 120" width="1200" height="1200" class="w-full h-full"><circle cx="60" cy="60" r="55" fill="none" stroke="#BE8B5E" stroke-width="2.5"/><g fill="none" stroke="#BE8B5E" stroke-width="2.5" stroke-linecap="round" stroke-linejoin="round"><path d="M 52,18 L 52,24 Q 52,28 46,28"/><path d="M 68,18 L 68,24 Q 68,28 74,28"/><path d="M 44,34 Q 52,32 58,36"/><path d="M 76,34 Q 68,32 62,36"/><path d="M 38,28 C 20,28 22,45 20,58 C 16,75 36,75 34,58 L 36,46"/><path d="M 36,46 Q 42,75 38,106"/><path d="M 82,28 C 100,28 98,45 100,58 C 104,75 84,75 86,58 L 84,46"/><path d="M 84,46 Q 78,75 82,106"/><path d="M 36,46 Q 45,62 58,54 L 58,42"/><path d="M 84,46 Q 75,62 62,54 L 62,42"/></g></svg>